<svg width="16" height="16" viewBox="0 0 16 16" fill="none" xmlns="http://www.w3.org/2000/svg">
<path fill-rule="evenodd" clip-rule="evenodd" d="M8.01857 1.10208H9.01764C9.14528 1.10208 9.26769 1.15278 9.35794 1.24304C9.44819 1.33329 9.49889 1.4557 9.49889 1.58333C9.49889 1.71097 9.44819 1.83337 9.35794 1.92363C9.26769 2.01388 9.14528 2.06458 9.01764 2.06458H8.05514C6.52926 2.06458 5.43329 2.06586 4.59913 2.17751C3.77843 2.28788 3.28371 2.49835 2.91796 2.86346C2.55285 3.22921 2.34303 3.72329 2.23266 4.54398C2.12101 5.37815 2.11973 6.47411 2.11973 8C2.11973 9.52588 2.12101 10.6218 2.23266 11.456C2.34303 12.2767 2.55349 12.7714 2.9186 13.1372C3.28435 13.5023 3.77843 13.7121 4.59913 13.8225C5.43329 13.9341 6.52926 13.9354 8.05514 13.9354C9.58103 13.9354 10.677 13.9341 11.5112 13.8225C12.3319 13.7121 12.8266 13.5016 13.1923 13.1365C13.5574 12.7708 13.7673 12.2767 13.8776 11.456C13.9893 10.6218 13.9906 9.52588 13.9906 8V7.0375C13.9906 6.90986 14.0413 6.78745 14.1315 6.6972C14.2218 6.60695 14.3442 6.55625 14.4718 6.55625C14.5994 6.55625 14.7219 6.60695 14.8121 6.6972C14.9024 6.78745 14.9531 6.90986 14.9531 7.0375V8.03657C14.9531 9.51818 14.9531 10.679 14.8311 11.585C14.7067 12.5116 14.4461 13.2431 13.8725 13.8173C13.2982 14.3916 12.5667 14.6515 11.6395 14.776C10.7341 14.8979 9.57333 14.8979 8.09172 14.8979H8.01857C6.53696 14.8979 5.37618 14.8979 4.47015 14.776C3.54358 14.6515 2.81208 14.391 2.23779 13.8173C1.6635 13.2431 1.40363 12.5116 1.27914 11.5843C1.15723 10.679 1.15723 9.51818 1.15723 8.03657V7.96342C1.15723 6.48181 1.15723 5.32104 1.27914 4.41501C1.40363 3.48844 1.66414 2.75694 2.23779 2.18265C2.81208 1.60836 3.54358 1.34848 4.47079 1.224C5.37618 1.10208 6.53696 1.10208 8.01857 1.10208ZM11.1159 1.76043C11.5393 1.34864 12.1079 1.12008 12.6985 1.12417C13.2892 1.12827 13.8545 1.36469 14.2722 1.78231C14.6899 2.19993 14.9264 2.76519 14.9306 3.35584C14.9349 3.94649 14.7064 4.51507 14.2947 4.93861L10.0289 9.20505C9.79085 9.44246 9.64134 9.59261 9.47515 9.72223C9.279 9.87549 9.06662 10.0067 8.84183 10.1136C8.65125 10.2041 8.45041 10.2709 8.1315 10.3774L6.26746 10.9985C6.09881 11.0547 5.91786 11.0628 5.74487 11.0219C5.57188 10.9811 5.41368 10.8928 5.28799 10.7671C5.1623 10.6415 5.07409 10.4833 5.03322 10.3103C4.99236 10.1373 5.00047 9.95633 5.05663 9.78768L5.67777 7.92364C5.78428 7.60409 5.85102 7.40389 5.94149 7.21331C6.04929 6.9883 6.17977 6.77719 6.33291 6.57999C6.46253 6.41316 6.61203 6.26429 6.85009 6.02623L11.1159 1.76043ZM13.6139 2.4406C13.3729 2.1997 13.0461 2.06437 12.7053 2.06437C12.3645 2.06437 12.0377 2.1997 11.7967 2.4406L11.5554 2.68251C11.5691 2.74453 11.5901 2.81683 11.6183 2.89939C11.7101 3.1644 11.8846 3.51346 12.2131 3.842C12.5331 4.16204 12.9338 4.38934 13.3726 4.49971L13.6139 4.25844C13.8548 4.01742 13.9901 3.69061 13.9901 3.34984C13.9901 3.00907 13.8548 2.68161 13.6139 2.4406ZM12.6142 5.2588C12.2102 5.08459 11.843 4.83503 11.5323 4.52345C11.2208 4.21279 10.9712 3.84563 10.797 3.4416L7.55336 6.68458C7.28579 6.95216 7.18119 7.05803 7.09136 7.17225C6.98228 7.31393 6.8883 7.46662 6.81095 7.62783C6.74807 7.75809 6.70058 7.89926 6.58059 8.25795L6.30403 9.08891L6.96624 9.75175L7.79719 9.47455C8.15653 9.35456 8.29705 9.30707 8.42795 9.24483C8.58965 9.16783 8.74151 9.07393 8.88353 8.96314C8.99711 8.87395 9.10298 8.76936 9.37056 8.50242L12.6142 5.2588Z" fill="black"/>
</svg>
